<svg xmlns="http://www.w3.org/2000/svg" width="512" height="512" viewBox="0 0 512 512">
  <defs>
    <linearGradient id="bg" x1="0" y1="0" x2="1" y2="1">
      <stop offset="0" stop-color="#3AA0FF"/><stop offset=".5" stop-color="#0A84FF"/><stop offset="1" stop-color="#0B3AD1"/>
    </linearGradient>
    <radialGradient id="glow" cx=".5" cy=".36" r=".72">
      <stop offset="0" stop-color="#8FD0FF" stop-opacity=".5"/><stop offset="1" stop-color="#8FD0FF" stop-opacity="0"/>
    </radialGradient>
    <linearGradient id="mk" x1="0" y1="0" x2="0" y2="1">
      <stop offset="0" stop-color="#FFFFFF"/><stop offset="1" stop-color="#D6E9FF"/>
    </linearGradient>
    <radialGradient id="nd" cx=".42" cy=".38" r=".7">
      <stop offset="0" stop-color="#F0FCFF"/><stop offset=".45" stop-color="#22D3EE"/><stop offset="1" stop-color="#0AACD0"/>
    </radialGradient>
    <filter id="sb" x="-40%" y="-40%" width="180%" height="180%"><feGaussianBlur stdDeviation="11"/></filter>
  </defs>
  <rect x="16" y="16" width="480" height="480" rx="112" fill="url(#bg)"/>
  <rect x="16" y="16" width="480" height="480" rx="112" fill="url(#glow)"/>
  <rect x="16" y="16" width="480" height="220" rx="112" fill="#FFFFFF" opacity=".07"/>
  <g filter="url(#sb)" opacity=".55" fill="none" stroke="#22D3EE" stroke-width="34" stroke-linecap="round" stroke-linejoin="round">
    <path d="M217.1 351.5 L351.5 217.1"/><path d="M294.9 160.5 L160.5 294.9"/>
  </g>
  <g fill="none" stroke="url(#mk)" stroke-width="32" stroke-linecap="round" stroke-linejoin="round">
    <path d="M217.1 351.5 L351.5 217.1"/><path d="M316.1 223.3 L351.5 217.1 L345.3 252.6"/>
    <path d="M294.9 160.5 L160.5 294.9"/><path d="M195.9 288.7 L160.5 294.9 L166.7 259.5"/>
  </g>
  <circle cx="256" cy="256" r="18" fill="url(#nd)"/>
  <circle cx="256" cy="256" r="18" fill="none" stroke="#EAFCFF" stroke-opacity=".5" stroke-width="1.5"/>
  <rect x="16.75" y="16.75" width="478.5" height="478.5" rx="111.25" fill="none" stroke="#FFFFFF" stroke-opacity=".18" stroke-width="1.5"/>
</svg>